<?xml version="1.0" encoding="UTF-8"?>
<svg version="1.1" fill="none" xmlns="http://www.w3.org/2000/svg" width="138" height="27" viewBox="0 0 138 27" preserveAspectRatio="xMidYMid meet"> 
<path d="M0 0 C165 0 330 0 500 0 C500 165 500 330 500 500 C335 500 170 500 0 500 C0 335 0 170 0 0 Z " fill="#1B2528" transform="translate(0,0)"/>
<path d="M0 0 C30.86455095 0 59.38042331 9.90235746 83 30 C83.89074219 30.73992187 84.78148438 31.47984375 85.69921875 32.2421875 C91.90503638 37.58318215 97.03621278 43.50314103 102 50 C102.57105469 50.72058594 103.14210938 51.44117188 103.73046875 52.18359375 C113.63248676 65.37844436 121.12640915 80.9826201 125 97 C125.23904053 97.98709961 125.23904053 97.98709961 125.48291016 98.99414062 C127.81733118 108.94728483 128 117.44865777 128 128 C85.76 128 43.52 128 0 128 C0 85.76 0 43.52 0 0 Z " fill="#496BF6" transform="translate(16,146)"/>
<path d="M0 0 C0 42.24 0 84.48 0 128 C-8.25 128 -16.5 128 -25 128 C-25.226875 124.761875 -25.45375 121.52375 -25.6875 118.1875 C-26.94615573 103.11627974 -30.37247437 88.65304889 -37 75 C-37.30921387 74.35853027 -37.61842773 73.71706055 -37.93701172 73.05615234 C-42.94765358 62.78493162 -48.66026643 53.75030126 -56 45 C-56.66773437 44.18015625 -57.33546875 43.3603125 -58.0234375 42.515625 C-62.43618863 37.29236856 -67.35701387 33.10562071 -72.77734375 28.9453125 C-75 27 -75 27 -76 24 C-52.3051043 8.43233906 -28.46826899 0 0 0 Z " fill="#2E418C" transform="translate(169,146)"/>
<path d="M0 0 C4.95 0 9.9 0 15 0 C18.4953837 3.52835901 20.0854967 5.62889373 22.25 9.875 C22.81299805 10.86266357 23.37599609 11.85032715 23.95605469 12.86791992 C25.11101353 14.89724058 26.24425403 16.9390755 27.35546875 18.99267578 C29.83501401 23.52697485 32.54288644 27.91185815 35.25 32.3125 C35.70407227 33.0761084 36.15814453 33.8397168 36.62597656 34.62646484 C38.68946741 38.42785475 38.68946741 38.42785475 42 41 C42 27.47 42 13.94 42 0 C45.96 0 49.92 0 54 0 C54 21.45 54 42.9 54 65 C41 65 41 65 37.81640625 62.08984375 C37.01643549 60.73327647 36.26743452 59.34579518 35.5625 57.9375 C34.68000354 56.38914275 33.79717211 54.84097637 32.9140625 53.29296875 C32.45547852 52.44911621 31.99689453 51.60526367 31.52441406 50.73583984 C29.26519169 46.6812521 26.7944333 42.76437535 24.34545898 38.82250977 C22.50779157 35.86319506 20.67988224 32.89893016 18.87109375 29.921875 C18.36505615 29.09268555 17.85901855 28.26349609 17.33764648 27.40917969 C15.99784261 24.99611442 14.96658423 22.5825428 14 20 C13.34 20 12.68 20 12 20 C12 34.85 12 49.7 12 65 C8.04 65 4.08 65 0 65 C0 43.55 0 22.1 0 0 Z " fill="#FDFDFD" transform="translate(191,189)"/>
<path d="M0 0 C5.25536737 3.24461811 9.77897448 8.42284232 11.96484375 14.234375 C13.86923718 23.11105181 13.31760123 32.64369127 8.4375 40.4375 C3.89853134 45.72921841 -1.62254351 48.9727607 -8.54296875 49.7890625 C-16.32364999 50.13568136 -22.14556006 48.94670104 -28.5625 44.4375 C-34.43815835 38.56184165 -36.52521076 31.78156196 -36.8125 23.6875 C-36.6978223 15.9696906 -34.66621545 9.58185108 -29.265625 3.9453125 C-21.4937166 -2.935322 -9.55334166 -4.25206536 0 0 Z " fill="#F8F8F8" transform="translate(294.5625,205.5625)"/>
<path d="M0 0 C4.48086127 2.74318522 7.69923807 6.34771422 9.375 11.375 C9.375 16.325 9.375 21.275 9.375 26.375 C-1.185 26.375 -11.745 26.375 -22.625 26.375 C-20.75055779 35.06802969 -20.75055779 35.06802969 -16.625 37.375 C-12.90912922 37.92145159 -9.33889054 37.94217271 -5.625 37.375 C-2.70613411 34.95863062 -2.70613411 34.95863062 -0.625 32.375 C3.24131879 32.25028004 6.32348416 35.22506839 9.375 37.375 C6.92342325 42.81110498 4.44491834 45.80133442 -0.92578125 48.5 C-7.9653772 50.78201084 -16.8955658 50.40984287 -23.625 47.375 C-29.45240801 43.14876765 -34.21498033 38.65604987 -35.625 31.375 C-36.31659436 20.89904604 -36.29307902 12.9262291 -29.3125 4.625 C-20.95185315 -2.37461132 -10.48535167 -4.75335942 0 0 Z " fill="#F9F9F9" transform="translate(389.625,205.625)"/>
<path d="M0 0 C16.83 0 33.66 0 51 0 C51 3.63 51 7.26 51 11 C44.73 11 38.46 11 32 11 C32 28.82 32 46.64 32 65 C27.71 65 23.42 65 19 65 C19 46.85 19 28.7 19 10 C12.73 10 6.46 10 0 10 C0 6.7 0 3.4 0 0 Z " fill="#F8F8F8" transform="translate(435,189)"/>
<path d="M0 0 C0 3.63 0 7.26 0 11 C4.62 11 9.24 11 14 11 C14 14.63 14 18.26 14 22 C9.38 22 4.76 22 0 22 C0.33 31.24 0.66 40.48 1 50 C6.79199672 50.13043257 6.79199672 50.13043257 12 49 C15.07692308 54.29230769 15.07692308 54.29230769 14.6875 57.875 C14.460625 58.57625 14.23375 59.2775 14 60 C8.26365313 62.41530394 1.89300558 63.34366797 -4.09375 61.27734375 C-8.61593307 58.91086236 -11.01445362 56.05515112 -12.56420898 51.25097656 C-13.13600939 48.29747529 -13.11132998 45.492595 -13.09765625 42.484375 C-13.09282227 40.60878906 -13.09282227 40.60878906 -13.08789062 38.6953125 C-13.07951172 37.39335937 -13.07113281 36.09140625 -13.0625 34.75 C-13.05798828 33.43257812 -13.05347656 32.11515625 -13.04882812 30.7578125 C-13.03704316 27.50516259 -13.02059011 24.25260416 -13 21 C-15.31 21 -17.62 21 -20 21 C-20 18.03 -20 15.06 -20 12 C-17.69 12 -15.38 12 -13 12 C-13 8.7 -13 5.4 -13 2 C-8.28741428 0.72201065 -4.95734952 0 0 0 Z " fill="#F4F5F5" transform="translate(333,193)"/>
<path d="M0 0 C4.29 0 8.58 0 13 0 C13 21.78 13 43.56 13 66 C8.71 66 4.42 66 0 66 C0 44.22 0 22.44 0 0 Z " fill="#F5F5F5" transform="translate(411,188)"/>
<path d="M0 0 C2.671875 0.4296875 2.671875 0.4296875 5.796875 2.8046875 C9.73226278 8.31423039 9.1221012 13.82101008 8.671875 20.4296875 C7.49660571 23.83796843 6.36225211 25.63309852 4.046875 28.3046875 C0.29527269 30.08176228 -3.26035779 30.07617193 -7.328125 29.4296875 C-10.6947123 27.56732006 -11.96070342 26.18202693 -13.640625 22.7421875 C-15.13613659 15.53654077 -14.84419468 9.94092765 -11.328125 3.4296875 C-8.23560033 -0.62389869 -4.77893552 -0.11378418 0 0 Z " fill="#1F282B" transform="translate(285.328125,214.5703125)"/>
<path d="M0 0 C2.31640625 0.41796875 2.31640625 0.41796875 4.94140625 2.04296875 C6.31640625 4.41796875 6.31640625 4.41796875 6.31640625 10.41796875 C-0.28359375 10.41796875 -6.88359375 10.41796875 -13.68359375 10.41796875 C-11.99712333 1.98561666 -8.27584687 -0.45634327 0 0 Z " fill="#1F282B" transform="translate(380.68359375,213.58203125)"/>
</svg>
