<?xml version="1.0" standalone="no"?>
<!DOCTYPE svg PUBLIC "-//W3C//DTD SVG 20010904//EN"
 "http://www.w3.org/TR/2001/REC-SVG-20010904/DTD/svg10.dtd">
<svg version="1.0" xmlns="http://www.w3.org/2000/svg"
 width="138" height="27" viewBox="0 0 138 27" fill="none"
 preserveAspectRatio="xMidYMid meet">

<g transform="translate(0.000000,500.000000) scale(0.100000,-0.100000)"
fill="#000000" stroke="none">
<path d="M0 2500 l0 -2500 2500 0 2500 0 0 2500 0 2500 -2500 0 -2500 0 0
-2500z m2186 405 c70 -113 131 -205 136 -205 4 0 8 92 8 205 l0 205 60 0 60 0
0 -325 0 -326 -67 3 -67 3 -132 215 c-73 118 -137 216 -143 218 -8 3 -11 -64
-11 -217 l0 -221 -60 0 -60 0 0 325 0 325 75 0 74 0 127 -205z m2064 -120 l0
-325 -70 0 -70 0 0 325 0 325 70 0 70 0 0 -325z m608 273 l-3 -53 -92 -3 -93
-3 0 -269 0 -270 -70 0 -70 0 0 270 0 270 -90 0 -90 0 0 55 0 55 256 0 255 0
-3 -52z m-1528 -48 l0 -60 71 0 70 0 -3 -47 -3 -48 -67 -3 -68 -3 0 -129 c0
-159 14 -181 95 -150 24 9 27 7 41 -25 7 -19 14 -41 14 -50 0 -22 -60 -45
-117 -45 -66 0 -113 27 -140 80 -21 40 -23 59 -23 182 l0 138 -35 0 -35 0 0
50 0 50 35 0 35 0 0 50 c0 49 0 49 38 55 20 4 42 8 47 10 39 13 45 6 45 -55z
m-402 -66 c47 -19 88 -58 115 -109 30 -55 31 -202 3 -255 -48 -90 -109 -125
-221 -125 -63 0 -89 5 -122 22 -164 88 -161 372 6 460 54 28 161 32 219 7z
m949 1 c21 -9 46 -23 56 -33 43 -39 73 -140 60 -204 l-5 -28 -159 0 c-151 0
-159 -1 -159 -20 0 -61 49 -100 125 -100 39 0 52 5 77 31 33 33 41 32 96 -9
l23 -18 -23 -34 c-68 -100 -268 -107 -360 -13 -46 47 -68 107 -68 187 0 115
39 189 123 231 60 30 156 34 214 10z"/>
<path d="M2798 2852 c-63 -8 -101 -107 -78 -203 15 -62 47 -89 104 -89 72 0
116 53 116 138 0 116 -46 166 -142 154z"/>
<path d="M3717 2849 c-16 -9 -47 -65 -47 -84 0 -3 45 -5 100 -5 98 0 100 0
100 24 0 13 -9 35 -21 50 -17 22 -28 26 -67 26 -26 0 -55 -5 -65 -11z"/>
</g>
</svg>
